<svg width="1049" height="188" viewBox="0 0 1049 188" fill="none" xmlns="http://www.w3.org/2000/svg">
<g clip-path="url(#clip0)">
<path d="M100.444 97.3015L96.2988 97.9989C95.3375 97.2521 94.1331 95.8949 92.9775 93.401L92.4813 92.3332L91.3136 92.4731C91.1855 92.4883 78.4289 94.0067 68.1373 94.3485C59.5126 94.6333 55.5019 98.9809 54.178 100.839C53.7648 101.416 53.4281 102.005 53.157 102.592C52.6444 102.197 52.0728 101.835 51.4403 101.515C49.4055 100.487 43.833 98.5048 36.0622 102.257C26.7927 106.737 14.791 111.324 14.67 111.369L13.5711 111.788L13.6301 112.961C13.7636 115.677 13.34 117.428 12.844 118.541L8.44646 119.98C6.9599 120.466 6.1473 122.069 6.6353 123.556C7.12214 125.042 8.72383 125.849 10.2105 125.366L43.422 114.493C45.6299 116.831 49.8724 119.051 56.4134 117.439C56.4795 117.423 56.5375 117.394 56.6008 117.373C56.6663 117.362 56.7311 117.361 56.7972 117.344C63.3386 115.732 66.0626 111.794 66.9309 108.697L101.389 102.889C102.939 102.626 103.974 101.166 103.713 99.6245C103.449 98.0822 101.987 97.04 100.444 97.3015ZM63.9521 103.451C62.49 103.699 61.5197 104.955 61.5932 106.39C61.5944 106.427 61.7165 110.293 55.4361 111.842C55.37 111.858 55.3123 111.888 55.2491 111.909C55.1836 111.92 55.1184 111.92 55.0523 111.936C49.0552 113.415 47.231 110.277 47.0679 109.969C46.4657 108.663 44.9808 108.019 43.6134 108.464L16.5921 117.311C16.778 116.354 16.8919 115.253 16.8939 113.98C20.0702 112.743 29.7039 108.925 37.4722 105.173C41.9571 103.004 46.6331 102.717 49.982 104.405C51.7022 105.274 52.46 106.366 52.5871 107.037C52.5899 107.048 52.5968 107.057 52.5996 107.068C52.6126 107.114 52.617 107.165 52.6319 107.211C52.6544 107.282 52.7039 107.335 52.7357 107.401C52.7853 107.509 52.831 107.612 52.9004 107.705C52.9592 107.782 53.0294 107.841 53.1002 107.906C53.1817 107.982 53.2621 108.056 53.3557 108.113C53.4423 108.163 53.535 108.196 53.6284 108.232C53.7263 108.268 53.8201 108.305 53.9243 108.321C54.0338 108.34 54.1426 108.331 54.2544 108.326C54.3301 108.322 54.4016 108.342 54.4782 108.328C54.5086 108.322 54.532 108.302 54.562 108.295C54.5934 108.287 54.6239 108.294 54.655 108.285C54.7383 108.259 54.7979 108.204 54.8742 108.165C54.9619 108.123 55.0494 108.086 55.1271 108.028C55.2276 107.956 55.3071 107.867 55.3859 107.774C55.4389 107.71 55.4976 107.652 55.5404 107.581C55.6039 107.479 55.6451 107.368 55.6848 107.252C55.7139 107.169 55.7457 107.089 55.7626 107C55.7824 106.885 55.7747 106.771 55.7678 106.65C55.7653 106.578 55.7853 106.509 55.7721 106.436C55.7636 106.387 55.7438 106.341 55.7337 106.294C55.7309 106.282 55.7333 106.272 55.7304 106.261C55.5308 105.606 55.695 104.286 56.8151 102.718C58.995 99.667 63.2672 97.7483 68.2466 97.5834C76.8692 97.295 87.1736 96.1983 90.5602 95.8172C91.1605 96.9566 91.7811 97.8879 92.3968 98.6538L63.9521 103.451Z" fill="black"/>
</g>
<g clip-path="url(#clip1)">
<path d="M221.963 79.0082L217.876 78.0253C217.285 76.9614 216.709 75.2408 216.623 72.4935L216.585 71.3166L215.456 70.9876C215.332 70.9514 203.001 67.3484 193.399 63.629C185.353 60.5105 179.959 62.9382 178.013 64.1288C177.407 64.4973 176.866 64.9072 176.387 65.3409C176.069 64.7774 175.686 64.2195 175.229 63.678C173.76 61.9347 169.41 57.9265 160.791 58.3328C150.507 58.8214 137.668 58.3371 137.539 58.3305L136.364 58.2854L135.958 59.3883C135.016 61.9389 133.94 63.3842 133.048 64.2136L128.438 63.8138C126.88 63.6777 125.504 64.8339 125.37 66.3934C125.236 67.9515 126.393 69.322 127.95 69.4596L162.766 72.474C163.88 75.4911 166.913 79.1963 173.563 80.2767C173.63 80.2876 173.695 80.2835 173.761 80.2897C173.826 80.3051 173.886 80.3292 173.953 80.3401C180.603 81.4205 184.652 78.8658 186.665 76.3567L220.643 84.5187C222.172 84.8845 223.696 83.9478 224.06 82.4269C224.422 80.9045 223.485 79.3725 221.963 79.0082ZM185.981 70.3632C184.539 70.0177 183.154 70.7932 182.659 72.1421C182.645 72.1767 181.242 75.7814 174.858 74.7441C174.79 74.7332 174.725 74.7387 174.659 74.7325C174.595 74.7172 174.535 74.6916 174.467 74.6807C168.371 73.6902 167.922 70.0891 167.893 69.7416C167.851 68.304 166.737 67.1289 165.305 67.0026L136.978 64.5508C137.524 63.7429 138.06 62.775 138.561 61.6043C141.968 61.7114 152.328 61.9749 160.945 61.5677C165.921 61.3306 170.335 62.8994 172.755 65.7648C173.997 67.2388 174.266 68.5401 174.12 69.2073C174.118 69.2189 174.121 69.2291 174.119 69.2407C174.113 69.2886 174.097 69.3364 174.093 69.3852C174.085 69.4594 174.11 69.5275 174.114 69.6002C174.117 69.7195 174.119 69.8319 174.146 69.9451C174.17 70.0386 174.211 70.1207 174.251 70.2074C174.296 70.3095 174.341 70.4095 174.405 70.4982C174.465 70.5785 174.538 70.6449 174.61 70.7144C174.685 70.7859 174.757 70.8571 174.847 70.913C174.94 70.9728 175.044 71.0076 175.148 71.0468C175.219 71.0729 175.278 71.1191 175.354 71.1363C175.384 71.1431 175.413 71.1333 175.444 71.1382C175.476 71.1434 175.501 71.1621 175.533 71.1655C175.62 71.1747 175.696 71.1473 175.782 71.1418C175.879 71.1369 175.974 71.1377 176.068 71.1148C176.189 71.0879 176.297 71.0365 176.406 70.9822C176.479 70.9446 176.556 70.9137 176.624 70.8653C176.722 70.7965 176.803 70.7104 176.885 70.6195C176.945 70.5538 177.005 70.4934 177.056 70.4181C177.119 70.3196 177.157 70.2118 177.198 70.0981C177.224 70.0303 177.269 69.9754 177.286 69.9027C177.297 69.8547 177.297 69.8043 177.306 69.7572C177.308 69.7453 177.314 69.7369 177.316 69.7251C177.389 69.0447 178.057 67.8948 179.702 66.8908C182.904 64.9386 187.586 64.8479 192.232 66.6479C200.277 69.7623 210.187 72.7921 213.452 73.7689C213.558 75.0525 213.764 76.1524 214.03 77.0984L185.981 70.3632Z" fill="black"/>
</g>
<path d="M860 188V35L675 35" stroke="black" stroke-width="3"/>
<path d="M773 47H849.5V140.5" stroke="black" stroke-width="2"/>
<circle cx="781" cy="115" r="50" fill="#FFD7BA"/>
<defs>
<clipPath id="clip0">
<rect width="100" height="100" fill="white" transform="translate(0 67.9348) rotate(-13.8482)"/>
</clipPath>
<clipPath id="clip1">
<rect width="100" height="100" fill="white" transform="translate(134.037 13) rotate(9.22786)"/>
</clipPath>
</defs>
</svg>
