<?xml version="1.0" standalone="no"?>
<!DOCTYPE svg PUBLIC "-//W3C//DTD SVG 20010904//EN"
 "http://www.w3.org/TR/2001/REC-SVG-20010904/DTD/svg10.dtd">
<svg version="1.0" xmlns="http://www.w3.org/2000/svg"
 width="225.000000pt" height="225.000000pt" viewBox="0 0 225.000000 225.000000"
 preserveAspectRatio="xMidYMid meet">
<metadata>
Created by potrace 1.10, written by Peter Selinger 2001-2011
</metadata>
<g transform="translate(0.000000,225.000000) scale(0.100000,-0.100000)"
fill="#000000" stroke="none">
<path d="M66 1271 c-20 -22 -45 -86 -46 -116 0 -38 21 -94 47 -126 66 -79 184
-90 268 -26 32 24 12 29 -30 7 -154 -78 -315 89 -230 238 25 44 20 56 -9 23z"/>
<path d="M144 1261 c-58 -35 -71 -130 -23 -175 l22 -21 -8 25 c-15 46 -11 107
9 129 31 34 78 44 120 27 40 -17 48 -6 14 18 -30 22 -96 20 -134 -3z"/>
<path d="M540 1253 c-69 -13 -119 -93 -100 -163 11 -41 56 -86 96 -96 41 -10
95 6 127 37 23 23 27 33 18 42 -9 9 -16 7 -29 -9 -55 -70 -154 -53 -182 30
-34 105 103 180 174 95 27 -31 46 -38 46 -15 0 17 -65 76 -85 76 -7 0 -19 2
-27 4 -7 2 -24 1 -38 -1z"/>
<path d="M785 1188 c-15 -35 -42 -91 -58 -126 -16 -34 -27 -65 -24 -69 10 -9
34 15 47 47 12 29 15 30 76 30 64 0 64 0 81 -37 17 -34 43 -56 43 -35 0 22
-111 247 -123 250 -9 2 -25 -21 -42 -60z m48 -86 c-25 -2 -47 -1 -49 1 -2 2 6
28 18 57 l22 52 27 -53 27 -54 -45 -3z"/>
<path d="M990 1124 l0 -129 75 5 c63 4 78 9 100 31 54 53 49 150 -8 193 -20
15 -47 21 -97 24 l-70 4 0 -128z m146 78 c51 -41 55 -109 9 -152 -18 -17 -40
-25 -80 -28 l-55 -4 0 101 0 101 53 0 c34 0 59 -6 73 -18z"/>
<path d="M1252 1124 l3 -125 88 -2 c64 -2 87 1 87 11 0 8 -22 12 -75 12 l-75
0 0 45 0 45 75 0 c62 0 75 3 75 16 0 14 -11 16 -75 12 l-75 -3 0 42 0 43 75 0
c60 0 75 3 75 15 0 12 -17 15 -90 15 l-91 0 3 -126z"/>
<path d="M1490 1119 c0 -100 3 -130 13 -126 8 3 12 32 11 100 0 54 2 97 5 97
3 -1 41 -46 84 -100 42 -55 82 -100 87 -100 6 0 10 52 10 130 0 111 -2 130
-16 130 -13 0 -15 -15 -12 -100 2 -55 1 -100 -2 -99 -3 0 -39 45 -80 99 -41
54 -81 99 -87 99 -10 1 -13 -32 -13 -130z"/>
<path d="M1809 1233 c-108 -67 -56 -243 71 -243 55 0 136 58 113 81 -7 7 -20
1 -41 -20 -42 -43 -101 -44 -143 -2 -65 66 -20 176 73 176 35 0 45 -6 73 -38
35 -40 58 -35 35 7 -28 52 -126 74 -181 39z"/>
<path d="M2050 1120 l0 -130 90 0 c73 0 90 3 90 15 0 12 -15 15 -75 15 l-75 0
0 45 0 45 76 0 c56 0 75 3 71 13 -3 8 -24 11 -75 8 l-72 -3 0 46 0 46 75 0
c60 0 75 3 75 15 0 12 -17 15 -90 15 l-90 0 0 -130z"/>
<path d="M176 1204 c-9 -8 -16 -22 -16 -30 0 -13 3 -13 22 0 28 20 47 20 69 0
23 -20 32 -3 13 24 -18 26 -65 29 -88 6z"/>
</g>
</svg>
