<svg width="15" height="15" viewBox="0 0 15 15" fill="none" xmlns="http://www.w3.org/2000/svg">
<path d="M4.04248 10.0013H4.987C5.64416 6.27336 8.89117 3.43886 12.8076 3.43886C12.9717 3.43886 13.1277 3.44027 13.2852 3.44167L11.5677 5.15869C11.3845 5.34197 11.3845 5.63821 11.5677 5.8215C11.6592 5.91291 11.7792 5.95885 11.8991 5.95885C12.0191 5.95885 12.1392 5.91291 12.2305 5.8215L14.9999 2.97948L12.231 0.137464C12.0477 -0.0458214 11.7515 -0.0458214 11.5682 0.137464C11.3849 0.32075 11.3849 0.616991 11.5682 0.800277L13.2702 2.50229C13.1211 2.50182 12.9796 2.50089 12.8272 2.50089C8.38823 2.50136 4.71842 5.7521 4.04248 10.0013Z" fill="black"/>
<path d="M13.5946 7.03122C13.3359 7.03122 13.1259 7.24123 13.1259 7.49995V14.0624H0.938484V4.68747H5.15721C5.41597 4.68747 5.62594 4.47745 5.62594 4.21873C5.62594 3.95998 5.41593 3.75 5.15721 3.75H5.14314H0.938484C0.421006 3.75 0.000976562 4.16999 0.000976562 4.68751V14.0624C0.000976562 14.5799 0.420967 14.9999 0.938484 14.9999H13.1259C13.6434 14.9999 14.0634 14.5799 14.0634 14.0624V7.49995C14.0634 7.24119 13.8534 7.03122 13.5946 7.03122Z" fill="#191919"/>
</svg>
