<svg width="40" height="40" viewBox="0 0 40 40" fill="none" xmlns="http://www.w3.org/2000/svg">
<path d="M19.9975 0.416016C8.955 0.416016 0 9.40601 0 20.496C0 29.366 5.73 36.891 13.68 39.5485C14.68 39.7335 15.045 39.1135 15.045 38.581C15.045 38.1035 15.0275 36.841 15.0175 35.166C9.455 36.3785 8.28 32.4735 8.28 32.4735C7.3725 30.1535 6.06 29.536 6.06 29.536C4.2425 28.291 6.195 28.316 6.195 28.316C8.2025 28.4585 9.2575 30.386 9.2575 30.386C11.0425 33.4535 13.94 32.5685 15.08 32.0535C15.26 30.756 15.7775 29.871 16.35 29.3685C11.91 28.861 7.24 27.1385 7.24 19.446C7.24 17.2535 8.02 15.461 9.3 14.056C9.0925 13.5485 8.4075 11.506 9.495 8.74351C9.495 8.74351 11.175 8.20352 14.995 10.801C16.59 10.356 18.3 10.1335 20.0025 10.126C21.7 10.136 23.4125 10.356 25.01 10.8035C28.8275 8.20602 30.505 8.74601 30.505 8.74601C31.595 11.511 30.91 13.551 30.705 14.0585C31.9875 15.4635 32.76 17.256 32.76 19.4485C32.76 27.161 28.085 28.8585 23.63 29.356C24.3475 29.976 24.9875 31.201 24.9875 33.0735C24.9875 35.7585 24.9625 37.9235 24.9625 38.581C24.9625 39.1185 25.3225 39.7435 26.3375 39.546C34.275 36.886 40 29.3635 40 20.496C40 9.40601 31.045 0.416016 19.9975 0.416016Z" fill="black"/>
</svg>
