<svg width="60" height="60" viewBox="0 0 60 74" fill="none" xmlns="http://www.w3.org/2000/svg">
<g clip-path="url(#clip0)">
<path d="M20.8992 19.1025C20.8992 18.3043 20.3745 17.6572 19.7273 17.6572H15.0398C14.3926 17.6572 13.8679 18.3043 13.8679 19.1025V39.3369H20.8992V19.1025Z" fill="black"/>
<path d="M10.3523 19.1025C10.3523 18.3043 9.82764 17.6572 9.18042 17.6572H4.49292C3.84569 17.6572 3.32104 18.3043 3.32104 19.1025V39.3369H10.3523V19.1025Z" fill="black"/>
<path d="M28.7398 39.337H36.6764C36.6767 39.0913 36.6271 38.8422 36.5203 38.6142L27.1453 18.5873C26.8218 17.8961 26.1051 17.6593 25.5446 18.0584L21.4851 20.949C20.9246 21.348 20.7325 22.232 21.0562 22.9233L28.7398 39.337Z" fill="black"/>
<path d="M42.8523 39.3369H55.4849L56.4763 26.3118C56.5225 25.7042 56.359 25.1008 56.0259 24.6495C55.6927 24.1983 55.2209 23.941 54.7262 23.941H50.9265V19.173L54.1489 15.1986C54.8354 14.3521 54.8354 12.9794 54.1489 12.1327C53.4625 11.2862 52.3495 11.2862 51.663 12.1327L49.1687 15.209L46.6743 12.1327C45.988 11.2862 44.8749 11.2862 44.1884 12.1327C43.502 12.9794 43.502 14.3521 44.1884 15.1986L47.4109 19.173V23.9409H43.6111C43.1163 23.9409 42.6444 24.198 42.3113 24.6494C41.9783 25.1006 41.8147 25.704 41.861 26.3116L42.8523 39.3369Z" fill="#FEC5BB"/>
<path d="M58.8281 43.6729H1.17188C0.524648 43.6729 0 44.3199 0 45.1182V51.829C0 52.6273 0.524648 53.2744 1.17188 53.2744H10.3703V53.2745V60.3343C10.3703 61.5316 11.1573 62.5022 12.1281 62.5022C13.0989 62.5022 13.8859 61.5316 13.8859 60.3343V53.2745H48.5037V53.2746V60.3344C48.5037 61.5317 49.2907 62.5024 50.2615 62.5024C51.2323 62.5024 52.0193 61.5317 52.0193 60.3344V53.2746H58.8282C59.4755 53.2746 60.0001 52.6276 60.0001 51.8293V45.1185C60 44.3199 59.4754 43.6729 58.8281 43.6729Z" fill="black"/>
</g>
<defs>
<clipPath id="clip0">
<rect width="60" height="74" fill="white"/>
</clipPath>
</defs>
</svg>
