<?xml version="1.0" standalone="no"?>
<!DOCTYPE svg PUBLIC "-//W3C//DTD SVG 20010904//EN"
 "http://www.w3.org/TR/2001/REC-SVG-20010904/DTD/svg10.dtd">
<svg version="1.0" xmlns="http://www.w3.org/2000/svg"
 width="256.000000pt" height="256.000000pt" viewBox="0 0 256.000000 256.000000"
 preserveAspectRatio="xMidYMid meet">
<metadata>
Created by potrace 1.16, written by Peter Selinger 2001-2019
</metadata>
<g transform="translate(0.000000,256.000000) scale(0.100000,-0.100000)"
fill="#000000" stroke="none">
<path d="M393 2205 c-184 -92 -247 -220 -167 -338 29 -42 29 -43 32 -219 l3
-178 -23 0 c-74 0 -131 -87 -126 -192 3 -66 21 -88 37 -44 12 31 39 46 83 46
l33 0 -2 -182 -3 -183 135 -115 c74 -63 138 -116 142 -117 7 -1 88 87 171 186
l28 34 129 -111 c71 -62 132 -111 136 -110 4 2 92 82 197 178 l191 175 0 350
1 350 -109 109 -108 108 -104 -111 c-57 -61 -108 -111 -114 -111 -6 0 -60 50
-120 110 l-110 110 -107 -112 -107 -113 0 60 c-1 84 -14 119 -66 182 -51 62
-60 88 -51 138 7 37 66 105 91 105 8 0 15 7 15 15 0 24 -32 18 -107 -20z m264
-527 l63 -62 0 -336 0 -336 -28 -27 -28 -27 -77 66 -77 65 0 322 0 321 37 38
c20 21 39 38 42 38 3 0 34 -28 68 -62z m435 15 l48 -47 0 -389 0 -388 -84 73
-84 73 -1 330 -1 329 32 33 c18 18 34 33 37 33 3 0 27 -21 53 -47z"/>
<path d="M1578 1838 c-94 -99 -104 -114 -90 -124 14 -11 22 -8 45 14 l27 26
30 -29 c29 -28 30 -31 30 -126 l0 -96 -39 -7 c-44 -7 -94 -44 -116 -87 -15
-28 -20 -123 -9 -153 9 -25 27 -19 46 14 18 32 53 50 94 50 l24 0 0 -178 0
-179 -26 -12 c-80 -36 -146 -125 -170 -231 -18 -75 -5 -83 49 -32 45 40 82 63
125 76 l22 7 0 -250 c0 -138 4 -251 8 -251 4 0 54 43 111 95 58 52 107 95 111
95 3 0 26 -20 50 -45 24 -25 48 -45 52 -45 4 0 8 88 8 195 0 107 4 195 8 195
11 0 75 -47 89 -66 14 -20 6 -25 191 116 l152 115 0 416 0 417 -42 37 c-24 21
-71 65 -106 98 l-62 59 -83 -88 c-46 -49 -98 -105 -115 -124 l-31 -35 -1 88
c0 86 0 87 -25 87 l-25 0 0 -113 c0 -101 -2 -116 -20 -132 -20 -18 -20 -17
-20 68 0 74 -3 88 -20 100 -11 7 -51 44 -90 80 -38 37 -71 67 -72 67 -2 0 -51
-50 -110 -112z m582 -564 l0 -383 -49 34 c-27 18 -72 38 -100 45 l-51 12 0
338 0 338 47 52 46 51 54 -52 53 -53 0 -382z m-248 -235 c-2 -570 -2 -572 -22
-554 -19 18 -20 32 -20 548 l0 531 22 23 c12 13 22 23 22 23 1 0 0 -257 -2
-571z"/>
</g>
</svg>
